<svg xmlns="http://www.w3.org/2000/svg" width="1400" height="140" viewBox="0 0 1400 140" version="1.1">
	<path d="M 443.314 23.791 C 436.024 26.403, 430.626 30.229, 427.195 35.218 C 416.815 50.305, 418.376 74.309, 430.526 86.460 C 442.203 98.136, 463.507 98.668, 475.770 87.589 C 481.656 82.271, 484.287 75.390, 484.404 65 L 484.500 56.500 469.750 56.223 L 455 55.947 455 61.973 L 455 68 462.500 68 C 469.612 68, 470 68.116, 469.996 70.250 C 469.990 73.845, 466.249 78.998, 462.510 80.560 C 458.118 82.395, 449.695 82.413, 446.200 80.595 C 439.067 76.884, 435.691 69.815, 435.638 58.479 C 435.570 44.136, 442.222 35.550, 453.373 35.589 C 459.916 35.612, 463.876 37.563, 466.917 42.263 L 469.335 46 476.668 46 C 485.121 46, 485.219 45.840, 481.433 38.241 C 476.605 28.553, 467.820 23.146, 455.667 22.383 C 450.313 22.047, 447.188 22.404, 443.314 23.791 M 223.486 24.177 C 223.204 24.911, 223.092 41.035, 223.237 60.006 L 223.500 94.500 242.500 94.500 C 261.324 94.500, 261.553 94.474, 267.251 91.676 C 274.588 88.073, 278 82.819, 278 75.122 C 278 66.240, 273.218 59.676, 265.521 57.993 L 262.500 57.332 266 55.795 C 273.104 52.675, 276.779 45.258, 275.027 37.577 C 273.764 32.038, 271.153 28.883, 265.448 26 C 260.802 23.653, 259.386 23.480, 242.249 23.171 C 227.715 22.908, 223.894 23.113, 223.486 24.177 M 291 59.018 L 291 95.036 314.750 94.768 L 338.500 94.500 338.798 88.250 L 339.095 82 322.548 82 L 306 82 306 73.500 L 306 65 321 65 L 336 65 336 58.500 L 336 52 321 52 L 306 52 306 43.500 L 306 35 322.500 35 L 339 35 339 29 L 339 23 315 23 L 291 23 291 59.018 M 355 58.905 L 355 95 361.970 95 L 368.940 95 369.220 82.250 L 369.500 69.500 375.027 69.207 L 380.555 68.913 387.515 81.957 L 394.476 95 402.238 95 C 406.681 95, 410 94.578, 410 94.012 C 410 93.469, 406.850 87.326, 403 80.360 C 399.150 73.394, 396.003 67.425, 396.006 67.097 C 396.010 66.769, 397.327 65.752, 398.934 64.838 C 403.821 62.058, 407.155 55.937, 407.738 48.675 C 408.587 38.093, 404.546 30.452, 395.595 25.716 C 391.921 23.772, 389.622 23.511, 373.250 23.179 L 355 22.809 355 58.905 M 498.637 23.779 C 498.306 24.314, 498.140 40.445, 498.268 59.626 L 498.500 94.500 515.500 94.404 C 530.395 94.320, 533.191 94.040, 538.079 92.146 C 549.354 87.777, 555.898 79.120, 557.972 65.827 C 560.806 47.668, 552.501 30.698, 538.195 25.417 C 532.765 23.413, 499.709 22.044, 498.637 23.779 M 587.488 24.214 C 583.945 33.766, 564.007 92.840, 564.004 93.792 C 564.001 94.762, 565.930 95.011, 571.750 94.792 L 579.500 94.500 582.373 86.221 L 585.247 77.942 597.790 78.221 L 610.334 78.500 612.999 86.500 L 615.663 94.500 623.912 94.792 C 632.107 95.082, 632.157 95.068, 631.445 92.792 C 631.051 91.531, 625.440 75.425, 618.977 57 L 607.226 23.500 597.596 23.214 C 590.449 23.001, 587.842 23.259, 587.488 24.214 M 642 59 L 642 95 664.500 95 L 687 95 687 88.500 L 687 82 671.500 82 L 656 82 656 52.500 L 656 23 649 23 L 642 23 642 59 M 719.986 25.250 C 719.451 26.488, 713.903 42.502, 707.655 60.838 C 699.858 83.720, 696.672 94.321, 697.497 94.637 C 698.158 94.891, 701.804 94.964, 705.599 94.799 L 712.500 94.500 715.060 86.500 L 717.620 78.500 730.187 78.221 L 742.753 77.942 745.627 86.221 L 748.500 94.500 755.903 94.797 C 759.975 94.960, 763.621 94.735, 764.005 94.297 C 764.609 93.608, 759.719 79.103, 743.425 33.250 L 739.782 23 730.370 23 C 721.563 23, 720.895 23.145, 719.986 25.250 M 774.237 58.750 L 774.500 94.500 781.750 94.794 L 789 95.088 789 79.544 L 789 64 804.500 64 L 820 64 820 79.500 L 820 95 827.500 95 L 835 95 835 59 L 835 23 827.500 23 L 820 23 820 37.500 L 820 52 804.500 52 L 789 52 789 37.500 L 789 23 781.487 23 L 773.975 23 774.237 58.750 M 846.133 25.250 C 846.795 26.488, 852.648 36.418, 859.140 47.317 L 870.944 67.134 871.222 80.817 L 871.500 94.500 878.750 94.794 L 886 95.088 886.041 81.294 L 886.083 67.500 898.994 45.500 L 911.905 23.500 904.291 23.205 C 900.103 23.043, 896.120 23.124, 895.439 23.385 C 894.758 23.646, 890.736 30.701, 886.501 39.063 L 878.801 54.265 872.828 42.883 C 869.542 36.622, 865.743 29.588, 864.385 27.250 L 861.916 23 853.423 23 L 844.930 23 846.133 25.250 M 918 28.966 L 918 34.932 928.750 35.216 L 939.500 35.500 939.765 65.294 L 940.030 95.087 947.265 94.794 L 954.500 94.500 954.765 64.750 L 955.030 35 965.515 35 L 976 35 976 29 L 976 23 947 23 L 918 23 918 28.966 M 984 29 L 984 35 994.985 35 L 1005.970 35 1006.235 64.750 L 1006.500 94.500 1013.750 94.794 L 1021 95.088 1021 65.044 L 1021 35 1032 35 L 1043 35 1043 29 L 1043 23 1013.500 23 L 984 23 984 29 M 1052.500 57.750 C 1045.995 76.863, 1040.466 93.082, 1040.213 93.792 C 1039.856 94.797, 1041.617 95.020, 1048.120 94.792 L 1056.486 94.500 1058.960 86.250 L 1061.433 78 1074.154 78 L 1086.876 78 1089.644 86.500 L 1092.412 95 1100.206 95 C 1105.755 95, 1108 94.642, 1108 93.756 C 1108 93.071, 1102.510 76.871, 1095.801 57.756 L 1083.601 23 1073.964 23 L 1064.327 23 1052.500 57.750 M 1118.237 58.750 L 1118.500 94.500 1125.783 94.794 L 1133.065 95.089 1132.783 69.044 C 1132.627 54.719, 1132.590 42.999, 1132.699 42.999 C 1132.809 43, 1134.724 46.487, 1136.955 50.750 C 1139.185 55.013, 1146.087 66.600, 1152.291 76.500 L 1163.572 94.500 1171.786 94.790 L 1180 95.081 1180 59.040 L 1180 23 1172.425 23 L 1164.851 23 1165.175 48.979 L 1165.500 74.958 1162 68.119 C 1160.075 64.358, 1153.104 52.667, 1146.508 42.140 L 1134.517 23 1126.246 23 L 1117.975 23 1118.237 58.750 M 238 44 L 238 53 245.550 53 C 250.235 53, 254.177 52.442, 255.941 51.530 C 262.097 48.347, 261.763 39.052, 255.397 36.392 C 253.564 35.627, 248.900 35, 245.032 35 L 238 35 238 44 M 369.667 35.667 C 369.300 36.033, 369 40.983, 369 46.667 L 369 57 376.599 57 C 386.511 57, 390.571 55.164, 392.124 49.980 C 394.189 43.088, 391.157 37.517, 384.500 35.975 C 379.830 34.892, 370.632 34.702, 369.667 35.667 M 513 59.019 L 513 82.277 521.783 81.777 C 531.469 81.224, 535.370 79.726, 539.308 75.046 C 544.444 68.942, 545.227 54.254, 540.894 45.288 C 537.741 38.765, 533.438 36.655, 522.287 36.168 L 513 35.761 513 59.019 M 596.184 39.500 C 592.312 54.446, 590.063 62.737, 589.471 64.250 C 588.851 65.835, 589.605 66, 597.460 66 C 606.012 66, 606.124 65.968, 605.384 63.750 C 604.971 62.513, 602.966 55.650, 600.927 48.500 L 597.220 35.500 596.184 39.500 M 729.062 40 C 727.926 44.374, 723.421 60.728, 722.381 64.250 C 721.918 65.820, 722.739 66, 730.352 66 L 738.838 66 736.475 58.250 C 735.176 53.987, 733.240 47.125, 732.172 43 L 730.231 35.500 729.062 40 M 1070.271 48.862 C 1068.495 55.813, 1066.755 62.513, 1066.404 63.750 C 1065.779 65.958, 1065.926 66, 1074.359 66 L 1082.950 66 1081.895 63.250 C 1081.314 61.737, 1079.307 55.145, 1077.436 48.600 C 1075.565 42.055, 1073.913 36.593, 1073.767 36.462 C 1073.620 36.330, 1072.047 41.910, 1070.271 48.862 M 238 72.500 L 238 82 247.066 82 C 258.977 82, 262.901 79.896, 262.968 73.473 C 263.041 66.514, 257.191 63, 245.532 63 L 238 63 238 72.500" stroke="none" fill="black" fill-rule="evenodd"/>
</svg>